<svg width="38" height="33" viewBox="0 0 38 33" fill="none" xmlns="http://www.w3.org/2000/svg">
<path d="M27.6367 1.5C32.4252 1.50021 36.5 5.69309 36.5 11C36.5 13.3248 35.4892 15.7761 33.7969 18.2256C32.1134 20.6622 29.8392 22.9752 27.5166 24.9922C25.2004 27.0036 22.8768 28.6856 21.1289 29.8662C20.2564 30.4555 19.5306 30.9181 19.0254 31.2314C19.018 31.236 19.0102 31.2396 19.0029 31.2441C18.995 31.2392 18.9866 31.2345 18.9785 31.2295C18.4731 30.9137 17.7467 30.4484 16.874 29.8555C15.1257 28.6675 12.8021 26.9765 10.4854 24.959C8.16187 22.9356 5.88629 20.6191 4.20215 18.1855C2.50854 15.7383 1.5 13.2995 1.5 11C1.5 5.69309 5.57482 1.50021 10.3633 1.5C13.4384 1.5 16.1581 3.12679 17.7139 5.72168L19 7.86719L20.2861 5.72168C21.8419 3.12679 24.5616 1.5 27.6367 1.5Z" stroke="#F44336" stroke-width="3"/>
</svg>
